<?xml version="1.0" encoding="UTF-8"?>
<svg id="Capa_1" data-name="Capa 1" xmlns="http://www.w3.org/2000/svg" version="1.1" viewBox="0 0 803 391">
  <defs>
    <style>
      .cls-1 {
        fill: #d1e7ff;
        stroke: #000;
        stroke-miterlimit: 10;
      }

      .cls-2 {
        fill: #b2b2b2;
        stroke-width: 0px;
      }
    </style>
  </defs>
  <g>
    <path class="cls-2" d="M211.7,328.5c-41.7,0-79.1-25.3-93.1-62.9l-.4-1-1,.4c-8.5,3.7-17.5,5.5-26.8,5.5-36.1,0-65.4-28.1-65.4-62.7s29.3-62.7,65.4-62.7,8.3.4,12.5,1.2l1.2.2s0-2.1,0-2.4c0-52.3,44.4-94.9,98.9-94.9s48.4,8.8,66.6,24.7c18.1,15.8,29.4,37.4,31.8,60.7v.8c0,0,.8.1.8.1,5.2.8,10.3,2.2,15.3,4l.9.3.4-.9c11.3-28.5,40.2-47.6,71.9-47.6s52.3,13.8,66.1,36.1l.6,1,.9-.8c14.2-12.5,32.7-19.4,52-19.4s49.3,12.1,63.6,32.3l.6.9.8-.7c10.1-8.1,22.8-12.5,35.9-12.5,23.1,0,43.6,13.3,52.1,33.9l.5,1.2,1-.8c6.8-5.2,15-8,23.7-8,20.9,0,38,16.3,38,36.4s-.7,7.8-2,11.6l-.3.9.9.3c10.2,3.9,16.7,13.4,16.7,24.1s-11.9,25.9-26.4,25.9-23.2-8.6-25.8-20.3l-1.1-5.1-.8,5.1c-2.8,17.6-19,30.8-37.5,30.8s-3.4-.1-5.2-.3h-.9c0-.1-.2.8-.2.8-7,34.5-38.8,59.6-75.5,59.6s-62.1-20-72.8-49.9l-.7-2.1-1.1,2c-13.4,24.4-39.5,39.5-68.1,39.5s-34.9-5.9-48.5-16.5c-13.5-10.5-22.9-25.2-26.6-41.4l-.4-1.9-1.3,1.5c-13,15.1-31.3,24.4-51.5,26.4h-.5s-.3.5-.3.5c-17.8,28.5-50.3,46.3-84.9,46.3Z"/>
    <path class="cls-2" d="M202.9,50.1c24.5,0,47.9,8.7,65.9,24.5,17.9,15.7,29.1,37,31.5,60.1l.2,1.5,1.5.2c5.1.8,10.2,2.1,15.1,3.9l1.8.7.7-1.8c5.4-13.7,14.9-25.3,27.4-33.8,12.8-8.6,27.9-13.2,43.6-13.2s26.6,3.4,38.1,9.8c11.2,6.2,20.6,15.1,27.2,25.8l1.2,2,1.8-1.6c14-12.4,32.3-19.2,51.4-19.2s48.6,11.9,62.8,31.9l1.2,1.7,1.7-1.3c9.9-7.9,22.4-12.3,35.3-12.3s22.1,3.2,31.3,9.4c9,6,15.9,14.3,19.9,24l1,2.4,2.1-1.6c6.6-5.1,14.6-7.8,23.1-7.8,20.4,0,37,15.9,37,35.4s-.6,7.6-1.9,11.2l-.6,1.8,1.8.7c9.8,3.8,16.1,12.9,16.1,23.1s-11.4,24.9-25.4,24.9-22.3-8.2-24.9-19.5l-2.3-10.2-1.7,10.3c-1.3,8.3-5.7,15.8-12.3,21.3-6.7,5.6-15.3,8.6-24.2,8.6s-3.3-.1-5-.3l-1.8-.2-.4,1.8c-6.9,34.1-38.3,58.8-74.5,58.8s-61.3-19.8-71.8-49.2l-1.5-4.2-2.1,3.9c-13.2,24-39,39-67.2,39s-34.4-5.8-47.9-16.3c-13.3-10.4-22.6-24.9-26.2-40.8l-.9-3.9-2.6,3c-12.8,14.9-30.9,24.1-50.8,26h-1c0,0-.5.9-.5.9-8.5,13.7-20.7,25.2-35,33.2-14.8,8.3-31.8,12.6-49,12.6-41.3,0-78.3-25-92.2-62.3l-.7-2-1.9.8c-8.4,3.6-17.3,5.4-26.4,5.4-35.5,0-64.4-27.7-64.4-61.7s28.9-61.7,64.4-61.7,8.2.4,12.3,1.1l2.4.4v-2.4s0-.4,0-.4c0-.2,0-.5,0-.7,0-51.8,43.9-93.9,97.9-93.9M202.9,48.1c-55.2,0-99.9,42.9-99.9,95.9s0,.8,0,1.2c-4.1-.8-8.3-1.2-12.6-1.2-36.7,0-66.4,28.5-66.4,63.7s29.7,63.7,66.4,63.7,18.9-2,27.2-5.6c13.8,37.1,50.7,63.6,94.1,63.6s68.3-18.7,85.8-46.7c20.9-2,39.4-12,52.2-26.7,7.7,33.6,38.8,58.7,76.1,58.7s55.9-16.2,69-40c10.5,29.4,39.5,50.5,73.7,50.5s69.5-26,76.5-60.4c1.7.2,3.5.4,5.3.4,19.5,0,35.6-13.7,38.5-31.7,2.7,12.1,13.7,21.1,26.8,21.1s27.4-12,27.4-26.9-7.2-21.1-17.4-25c1.3-3.7,2-7.7,2-11.9,0-20.7-17.4-37.4-39-37.4s-17.7,3.1-24.3,8.2c-8.4-20.2-29-34.6-53-34.6s-26.6,4.8-36.5,12.7c-14-19.8-37.7-32.7-64.4-32.7s-38.8,7.5-52.7,19.7c-13.6-21.9-38.5-36.5-67-36.5s-61.7,20-72.9,48.2c-4.9-1.8-10.1-3.2-15.4-4-5-48.5-47.6-86.4-99.4-86.4h0Z"/>
  </g>
  <g>
    <path class="cls-1" d="M219.7,319.1c-41.7,0-79.1-25.3-93.1-62.9l-.4-1-1,.4c-8.5,3.7-17.5,5.5-26.8,5.5-36.1,0-65.4-28.1-65.4-62.7s29.3-62.7,65.4-62.7,8.3.4,12.5,1.2l1.2.2s0-2.1,0-2.4c0-52.3,44.4-94.9,98.9-94.9s48.4,8.8,66.6,24.7c18.1,15.8,29.4,37.4,31.8,60.7v.8c0,0,.8.1.8.1,5.2.8,10.3,2.2,15.3,4l.9.3.4-.9c11.3-28.5,40.2-47.6,71.9-47.6s52.3,13.8,66.1,36.1l.6,1,.9-.8c14.2-12.5,32.7-19.4,52-19.4s49.3,12.1,63.6,32.3l.6.9.8-.7c10.1-8.1,22.8-12.5,35.9-12.5,23.1,0,43.6,13.3,52.1,33.9l.5,1.2,1-.8c6.8-5.2,15-8,23.7-8,20.9,0,38,16.3,38,36.4s-.7,7.8-2,11.6l-.3.9.9.3c10.2,3.9,16.7,13.4,16.7,24.1s-11.9,25.9-26.4,25.9-23.2-8.6-25.8-20.3l-1.1-5.1-.8,5.1c-2.8,17.6-19,30.8-37.5,30.8s-3.4-.1-5.2-.3h-.9c0-.1-.2.8-.2.8-7,34.5-38.8,59.6-75.5,59.6s-62.1-20-72.8-49.9l-.7-2.1-1.1,2c-13.4,24.4-39.5,39.5-68.1,39.5s-34.9-5.9-48.5-16.5c-13.5-10.5-22.9-25.2-26.6-41.4l-.4-1.9-1.3,1.5c-13,15.1-31.3,24.4-51.5,26.4h-.5s-.3.5-.3.5c-17.8,28.5-50.3,46.3-84.9,46.3Z"/>
    <path class="cls-1" d="M210.9,40.7c24.5,0,47.9,8.7,65.9,24.5,17.9,15.7,29.1,37,31.5,60.1l.2,1.5,1.5.2c5.1.8,10.2,2.1,15.1,3.9l1.8.7.7-1.8c5.4-13.7,14.9-25.3,27.4-33.8,12.8-8.6,27.9-13.2,43.6-13.2s26.6,3.4,38.1,9.8c11.2,6.2,20.6,15.1,27.2,25.8l1.2,2,1.8-1.6c14-12.4,32.3-19.2,51.4-19.2s48.6,11.9,62.8,31.9l1.2,1.7,1.7-1.3c9.9-7.9,22.4-12.3,35.3-12.3s22.1,3.2,31.3,9.4c9,6,15.9,14.3,19.9,24l1,2.4,2.1-1.6c6.6-5.1,14.6-7.8,23.1-7.8,20.4,0,37,15.9,37,35.4s-.6,7.6-1.9,11.2l-.6,1.8,1.8.7c9.8,3.8,16.1,12.9,16.1,23.1s-11.4,24.9-25.4,24.9-22.3-8.2-24.9-19.5l-2.3-10.2-1.7,10.3c-1.3,8.3-5.7,15.8-12.3,21.3-6.7,5.6-15.3,8.6-24.2,8.6s-3.3-.1-5-.3l-1.8-.2-.4,1.8c-6.9,34.1-38.3,58.8-74.5,58.8s-61.3-19.8-71.8-49.2l-1.5-4.2-2.1,3.9c-13.2,24-39,39-67.2,39s-34.4-5.8-47.9-16.3c-13.3-10.4-22.6-24.9-26.2-40.8l-.9-3.9-2.6,3c-12.8,14.9-30.9,24.1-50.8,26h-1c0,0-.5.9-.5.9-8.5,13.7-20.7,25.2-35,33.2-14.8,8.3-31.8,12.6-49,12.6-41.3,0-78.3-25-92.2-62.3l-.7-2-1.9.8c-8.4,3.6-17.3,5.4-26.4,5.4-35.5,0-64.4-27.7-64.4-61.7s28.9-61.7,64.4-61.7,8.2.4,12.3,1.1l2.4.4v-2.4s0-.4,0-.4c0-.2,0-.5,0-.7,0-51.8,43.9-93.9,97.9-93.9M210.9,38.7c-55.2,0-99.9,42.9-99.9,95.9s0,.8,0,1.2c-4.1-.8-8.3-1.2-12.6-1.2-36.7,0-66.4,28.5-66.4,63.7s29.7,63.7,66.4,63.7,18.9-2,27.2-5.6c13.8,37.1,50.7,63.6,94.1,63.6s68.3-18.7,85.8-46.7c20.9-2,39.4-12,52.2-26.7,7.7,33.6,38.8,58.7,76.1,58.7s55.9-16.2,69-40c10.5,29.4,39.5,50.5,73.7,50.5s69.5-26,76.5-60.4c1.7.2,3.5.4,5.3.4,19.5,0,35.6-13.7,38.5-31.7,2.7,12.1,13.7,21.1,26.8,21.1s27.4-12,27.4-26.9-7.2-21.1-17.4-25c1.3-3.7,2-7.7,2-11.9,0-20.7-17.4-37.4-39-37.4s-17.7,3.1-24.3,8.2c-8.4-20.2-29-34.6-53-34.6s-26.6,4.8-36.5,12.7c-14-19.8-37.7-32.7-64.4-32.7s-38.8,7.5-52.7,19.7c-13.6-21.9-38.5-36.5-67-36.5s-61.7,20-72.9,48.2c-4.9-1.8-10.1-3.2-15.4-4-5-48.5-47.6-86.4-99.4-86.4h0Z"/>
  </g>
</svg>