<?xml version="1.0" encoding="UTF-8"?>
<svg id="Capa_1" data-name="Capa 1" xmlns="http://www.w3.org/2000/svg" version="1.1" viewBox="0 0 449 242">
  <defs>
    <style>
      .cls-1 {
        fill: #d1e7ff;
        stroke: #000;
        stroke-miterlimit: 10;
      }

      .cls-2 {
        fill: #9fa1a3;
        stroke-width: 0px;
      }
    </style>
  </defs>
  <g>
    <path class="cls-2" d="M252.5,208c-14.7,0-28.6-6.9-37.1-18.5l-.7-.9-.8.8c-12.3,12-28.7,18.6-46.2,18.6s-28.7-4.7-40.3-13.5l-.6-.5-.6.5c-9.5,8-21.7,12.4-34.3,12.4-28.8,0-52.2-22.5-52.2-50.1s23.4-50.1,52.2-50.1,14.5,1.4,21.2,4.3l.7.3.5-.7c12-16.9,31.9-27,53.2-27.1h.7s.2-.6.2-.6c8.6-21.5,30.5-36,54.5-36s58.3,25.1,58.3,56-1.7,15.7-5.1,22.9l-.4.8.8.5c3.6,2.2,6.9,4.8,9.7,7.8l.6.7.7-.6c4.6-3.6,10.1-6.2,15.9-7.5h.6c0-.1.1-.8.1-.8,3.8-17.3,20-29.8,38.4-29.8s39.3,16.9,39.3,37.7,0,1.6-.1,2.6v.9c0,0,.8.1.8.1,16.1,2.6,27.8,15.9,27.8,31.6s-15,32.1-33.4,32.1-24-6.7-29.8-17.5l-.8-1.5-.9,1.4c-7.3,11-19.7,17.5-33.2,17.5s-17.9-3-24.9-8.5l-.7-.6-.6.7c-8.6,9.1-20.9,14.3-33.7,14.3Z"/>
    <path class="cls-2" d="M222.8,48c31.6,0,57.3,24.7,57.3,55s-1.7,15.4-5,22.5l-.8,1.6,1.6.9c3.5,2.1,6.7,4.7,9.5,7.6l1.3,1.3,1.4-1.1c4.5-3.5,9.9-6.1,15.5-7.3l1.2-.3.3-1.2c3.7-16.8,19.5-29,37.5-29s38.3,16.5,38.3,36.7,0,1.5,0,2.5v1.8c-.1,0,1.7.3,1.7.3,15.6,2.5,27,15.4,27,30.6s-14.5,31.1-32.4,31.1-23.3-6.5-28.9-16.9l-1.6-3-1.9,2.8c-7.1,10.7-19.2,17.1-32.4,17.1s-17.4-2.9-24.3-8.3l-1.4-1.1-1.3,1.3c-8.4,8.9-20.4,14-33,14s-28-6.8-36.3-18.1l-1.4-1.8-1.6,1.6c-12.1,11.8-28.2,18.3-45.5,18.3s-28.3-4.6-39.7-13.3l-1.3-1-1.2,1c-9.3,7.8-21.3,12.1-33.7,12.1-28.2,0-51.2-22-51.2-49.1s23-49.1,51.2-49.1,14.2,1.4,20.8,4.2l1.5.6.9-1.3c11.9-16.6,31.4-26.6,52.4-26.7h1.3s.5-1.3.5-1.3c4.1-10.3,11.3-19.1,20.7-25.4,9.7-6.5,21-9.9,32.9-9.9M222.8,46c-25.3,0-46.9,15.2-55.4,36.6-22.4,0-42.2,11-54,27.5-6.6-2.8-13.9-4.4-21.6-4.4-29.4,0-53.2,22.9-53.2,51.1s23.8,51.1,53.2,51.1,25.6-4.8,35-12.6c11.2,8.6,25.4,13.7,40.9,13.7s35-7.2,46.9-18.9c8.4,11.4,22.3,18.9,37.9,18.9s25.9-5.6,34.4-14.6c6.9,5.5,15.8,8.7,25.5,8.7,14.3,0,26.9-7.2,34-18,5.7,10.7,17.3,18,30.6,18,19,0,34.4-14.8,34.4-33.1s-12.4-30-28.7-32.6c0-.9.1-1.7.1-2.6,0-21.4-18-38.7-40.3-38.7s-35.5,13.1-39.4,30.6c-6.1,1.4-11.6,4-16.3,7.7-2.9-3.1-6.3-5.8-9.9-8,3.3-7.1,5.2-15,5.2-23.4,0-31.5-26.6-57-59.3-57h0Z"/>
  </g>
  <g>
    <path class="cls-1" d="M252.5,197c-14.7,0-28.6-6.9-37.1-18.5l-.7-.9-.8.8c-12.3,12-28.7,18.6-46.2,18.6s-28.7-4.7-40.3-13.5l-.6-.5-.6.5c-9.5,8-21.7,12.4-34.3,12.4-28.8,0-52.2-22.5-52.2-50.1s23.4-50.1,52.2-50.1,14.5,1.4,21.2,4.3l.7.3.5-.7c12-16.9,31.9-27,53.2-27.1h.7s.2-.6.2-.6c8.6-21.5,30.5-36,54.5-36s58.3,25.1,58.3,56-1.7,15.7-5.1,22.9l-.4.8.8.5c3.6,2.2,6.9,4.8,9.7,7.8l.6.7.7-.6c4.6-3.6,10.1-6.2,15.9-7.5h.6c0-.1.1-.8.1-.8,3.8-17.3,20-29.8,38.4-29.8s39.3,16.9,39.3,37.7,0,1.6-.1,2.6v.9c0,0,.8.1.8.1,16.1,2.6,27.8,15.9,27.8,31.6s-15,32.1-33.4,32.1-24-6.7-29.8-17.5l-.8-1.5-.9,1.4c-7.3,11-19.7,17.5-33.2,17.5s-17.9-3-24.9-8.5l-.7-.6-.6.7c-8.6,9.1-20.9,14.3-33.7,14.3Z"/>
    <path class="cls-1" d="M222.8,37c31.6,0,57.3,24.7,57.3,55s-1.7,15.4-5,22.5l-.8,1.6,1.6.9c3.5,2.1,6.7,4.7,9.5,7.6l1.3,1.3,1.4-1.1c4.5-3.5,9.9-6.1,15.5-7.3l1.2-.3.3-1.2c3.7-16.8,19.5-29,37.5-29s38.3,16.5,38.3,36.7,0,1.5,0,2.5v1.8c-.1,0,1.7.3,1.7.3,15.6,2.5,27,15.4,27,30.6s-14.5,31.1-32.4,31.1-23.3-6.5-28.9-16.9l-1.6-3-1.9,2.8c-7.1,10.7-19.2,17.1-32.4,17.1s-17.4-2.9-24.3-8.3l-1.4-1.1-1.3,1.3c-8.4,8.9-20.4,14-33,14s-28-6.8-36.3-18.1l-1.4-1.8-1.6,1.6c-12.1,11.8-28.2,18.3-45.5,18.3s-28.3-4.6-39.7-13.3l-1.3-1-1.2,1c-9.3,7.8-21.3,12.1-33.7,12.1-28.2,0-51.2-22-51.2-49.1s23-49.1,51.2-49.1,14.2,1.4,20.8,4.2l1.5.6.9-1.3c11.9-16.6,31.4-26.6,52.4-26.7h1.3s.5-1.3.5-1.3c4.1-10.3,11.3-19.1,20.7-25.4,9.7-6.5,21-9.9,32.9-9.9M222.8,35c-25.3,0-46.9,15.2-55.4,36.6-22.4,0-42.2,11-54,27.5-6.6-2.8-13.9-4.4-21.6-4.4-29.4,0-53.2,22.9-53.2,51.1s23.8,51.1,53.2,51.1,25.6-4.8,35-12.6c11.2,8.6,25.4,13.7,40.9,13.7s35-7.2,46.9-18.9c8.4,11.4,22.3,18.9,37.9,18.9s25.9-5.6,34.4-14.6c6.9,5.5,15.8,8.7,25.5,8.7,14.3,0,26.9-7.2,34-18,5.7,10.7,17.3,18,30.6,18,19,0,34.4-14.8,34.4-33.1s-12.4-30-28.7-32.6c0-.9.1-1.7.1-2.6,0-21.4-18-38.7-40.3-38.7s-35.5,13.1-39.4,30.6c-6.1,1.4-11.6,4-16.3,7.7-2.9-3.1-6.3-5.8-9.9-8,3.3-7.1,5.2-15,5.2-23.4,0-31.5-26.6-57-59.3-57h0Z"/>
  </g>
</svg>