<?xml version="1.0" encoding="UTF-8"?>
<svg id="Capa_1" data-name="Capa 1" xmlns="http://www.w3.org/2000/svg" version="1.1" viewBox="0 0 530 302">
  <defs>
    <style>
      .cls-1 {
        fill: #d1e7ff;
        stroke: #000;
        stroke-miterlimit: 10;
      }

      .cls-2 {
        fill: #a0a0a0;
        stroke-width: 0px;
      }
    </style>
  </defs>
  <g>
    <path class="cls-2" d="M227,274c-16.8,0-32.7-6.1-45-17.3l-.6-.5-.7.5c-11.4,8.2-24.9,12.6-39.1,12.6s-28.4-4.6-39.9-13.2l-.5-.4-.6.3c-6.7,3.4-14,5.1-21.7,5.1-26.2,0-47.6-20.8-47.6-46.4s21.4-46.4,47.6-46.4,5.1.2,7.6.6h.6c0,0,.4-.4.4-.4,11.7-16.4,30.1-26.4,50.5-27.5h1c0,0,0-1.3,0-1.3,0-35.4,29.5-64.2,65.8-64.2s39.3,9,51.8,24.6l1,1.3.7-1.5c10.2-24.2,34.1-39.8,60.9-39.8s65.8,28.8,65.8,64.2-.9,12-2.6,17.8l-.4,1.3h1.3c17.8.3,34.4,7.4,46.7,20.1l.3.3h.5c1.2-.1,2.5-.2,3.7-.2,26.2,0,47.6,20.8,47.6,46.4s-21.4,46.4-47.6,46.4-5.5-.2-8.2-.7h-.5c0,0-.4.2-.4.2-12,10.2-27.4,15.9-43.3,15.9s-24-3.2-34.3-9.4l-.5-.3-.5.2c-9.3,4.6-19.4,7-29.9,7-15.2,0-30.1-5.2-41.8-14.6l-.7-.6-.6.6c-12.5,12.5-29.2,19.4-47.1,19.4Z"/>
    <path class="cls-2" d="M319.3,61c35.8,0,64.8,28.3,64.8,63.2s-.8,11.8-2.5,17.5l-.7,2.5h2.6c17.6.3,33.9,7.3,46,19.8l.7.7h.9c1.2-.2,2.4-.2,3.6-.2,25.7,0,46.6,20.4,46.6,45.4s-20.9,45.4-46.6,45.4-5.4-.2-8-.7l-.9-.2-.7.6c-11.8,10.1-27,15.6-42.7,15.6s-23.6-3.2-33.7-9.2l-.9-.6-1,.5c-9.2,4.6-19.1,6.9-29.5,6.9-15,0-29.6-5.1-41.2-14.4l-1.4-1.1-1.3,1.3c-12.3,12.3-28.8,19.1-46.4,19.1s-32.2-6.1-44.3-17l-1.2-1.1-1.3.9c-11.2,8.1-24.5,12.4-38.5,12.4s-28-4.5-39.3-13l-1-.7-1.1.6c-6.6,3.3-13.7,5-21.2,5-25.7,0-46.6-20.4-46.6-45.4s20.9-45.4,46.6-45.4,5,.2,7.4.6l1.2.2.7-1c11.5-16.1,29.6-26,49.7-27.1h1.9c0-.1,0-2,0-2v-.2s0-.2,0-.2c0-34.8,29.1-63.2,64.8-63.2s38.7,8.8,51.1,24.2l2.1,2.6,1.3-3.1c10-23.8,33.6-39.2,60-39.2M319.3,59c-27.9,0-51.8,16.7-61.8,40.4-12.2-15.2-31.3-25-52.6-25-36.9,0-66.8,29.2-66.8,65.2s0,.2,0,.3c-21.2,1.1-39.8,11.9-51.2,27.9-2.5-.4-5.1-.6-7.7-.6-26.8,0-48.6,21.2-48.6,47.4s21.8,47.4,48.6,47.4,15.5-1.9,22.1-5.2c11.2,8.4,25.3,13.4,40.5,13.4s28.6-4.7,39.7-12.7c11.9,10.9,28,17.6,45.6,17.6s35.7-7.5,47.8-19.6c11.5,9.3,26.3,14.8,42.5,14.8s21.2-2.6,30.4-7.1c10.1,6,22,9.5,34.8,9.5s32.2-6.1,44-16.1c2.7.5,5.5.7,8.3.7,26.8,0,48.6-21.2,48.6-47.4s-21.8-47.4-48.6-47.4-2.5,0-3.8.1c-11.9-12.3-28.8-20-47.4-20.3,1.7-5.7,2.6-11.8,2.6-18.1,0-36-29.9-65.2-66.8-65.2h0Z"/>
  </g>
  <g>
    <path class="cls-1" d="M227,258c-16.8,0-32.7-6.1-45-17.3l-.6-.5-.7.5c-11.4,8.2-24.9,12.6-39.1,12.6s-28.4-4.6-39.9-13.2l-.5-.4-.6.3c-6.7,3.4-14,5.1-21.7,5.1-26.2,0-47.6-20.8-47.6-46.4s21.4-46.4,47.6-46.4,5.1.2,7.6.6h.6c0,0,.4-.4.4-.4,11.7-16.4,30.1-26.4,50.5-27.5h1c0,0,0-1.3,0-1.3,0-35.4,29.5-64.2,65.8-64.2s39.3,9,51.8,24.6l1,1.3.7-1.5c10.2-24.2,34.1-39.8,60.9-39.8s65.8,28.8,65.8,64.2-.9,12-2.6,17.8l-.4,1.3h1.3c17.8.3,34.4,7.4,46.7,20.1l.3.3h.5c1.2-.1,2.5-.2,3.7-.2,26.2,0,47.6,20.8,47.6,46.4s-21.4,46.4-47.6,46.4-5.5-.2-8.2-.7h-.5c0,0-.4.2-.4.2-12,10.2-27.4,15.9-43.3,15.9s-24-3.2-34.3-9.4l-.5-.3-.5.2c-9.3,4.6-19.4,7-29.9,7-15.2,0-30.1-5.2-41.8-14.6l-.7-.6-.6.6c-12.5,12.5-29.2,19.4-47.1,19.4Z"/>
    <path class="cls-1" d="M319.3,45c35.8,0,64.8,28.3,64.8,63.2s-.8,11.8-2.5,17.5l-.7,2.5h2.6c17.6.3,33.9,7.3,46,19.8l.7.7h.9c1.2-.2,2.4-.2,3.6-.2,25.7,0,46.6,20.4,46.6,45.4s-20.9,45.4-46.6,45.4-5.4-.2-8-.7l-.9-.2-.7.6c-11.8,10.1-27,15.6-42.7,15.6s-23.6-3.2-33.7-9.2l-.9-.6-1,.5c-9.2,4.6-19.1,6.9-29.5,6.9-15,0-29.6-5.1-41.2-14.4l-1.4-1.1-1.3,1.3c-12.3,12.3-28.8,19.1-46.4,19.1s-32.2-6.1-44.3-17l-1.2-1.1-1.3.9c-11.2,8.1-24.5,12.4-38.5,12.4s-28-4.5-39.3-13l-1-.7-1.1.6c-6.6,3.3-13.7,5-21.2,5-25.7,0-46.6-20.4-46.6-45.4s20.9-45.4,46.6-45.4,5,.2,7.4.6l1.2.2.7-1c11.5-16.1,29.6-26,49.7-27.1h1.9c0-.1,0-2,0-2v-.2s0-.2,0-.2c0-34.8,29.1-63.2,64.8-63.2s38.7,8.8,51.1,24.2l2.1,2.6,1.3-3.1c10-23.8,33.6-39.2,60-39.2M319.3,43c-27.9,0-51.8,16.7-61.8,40.4-12.2-15.2-31.3-25-52.6-25-36.9,0-66.8,29.2-66.8,65.2s0,.2,0,.3c-21.2,1.1-39.8,11.9-51.2,27.9-2.5-.4-5.1-.6-7.7-.6-26.8,0-48.6,21.2-48.6,47.4s21.8,47.4,48.6,47.4,15.5-1.9,22.1-5.2c11.2,8.4,25.3,13.4,40.5,13.4s28.6-4.7,39.7-12.7c11.9,10.9,28,17.6,45.6,17.6s35.7-7.5,47.8-19.6c11.5,9.3,26.3,14.8,42.5,14.8s21.2-2.6,30.4-7.1c10.1,6,22,9.5,34.8,9.5s32.2-6.1,44-16.1c2.7.5,5.5.7,8.3.7,26.8,0,48.6-21.2,48.6-47.4s-21.8-47.4-48.6-47.4-2.5,0-3.8.1c-11.9-12.3-28.8-20-47.4-20.3,1.7-5.7,2.6-11.8,2.6-18.1,0-36-29.9-65.2-66.8-65.2h0Z"/>
  </g>
</svg>