<?xml version="1.0" encoding="UTF-8"?>
<svg id="Capa_1" data-name="Capa 1" xmlns="http://www.w3.org/2000/svg" version="1.1" viewBox="0 0 495 277">
  <defs>
    <style>
      .cls-1 {
        fill: #d1e7ff;
        stroke: #000;
        stroke-miterlimit: 10;
      }

      .cls-2 {
        fill: #8c8c8c;
        stroke-width: 0px;
      }
    </style>
  </defs>
  <g>
    <path class="cls-2" d="M318,220.2c-16.3,0-31.5-7.1-41.6-19.4l-.8-.9-.8.9c-10.1,12.3-25.3,19.4-41.6,19.4s-27-5.1-36.9-14.4l-.6-.6-.7.6c-9.6,7.9-21.8,12.2-34.4,12.2s-27.6-5.4-37.7-15.1l-.6-.6-.7.4c-8.9,5.9-19.2,9-30,9-29.2,0-53-22.9-53-51s23.8-51,53-51,3.6,0,5.3.3h.6c0,0,.3-.5.3-.5,9.4-16.2,27.1-26.2,46.4-26.2s13.2,1.2,19.4,3.5l.6.2.5-.5c10.1-11.2,24.7-17.6,40.1-17.6s12.2,1,17.9,3l.7.3.4-.6c9.8-14.8,26.5-23.7,44.8-23.7s42.2,13.5,49.8,33.5l.3.8.8-.2c3.3-.6,6.7-.9,10.1-.9,19.5,0,37.4,10.2,46.7,26.7l.3.6h.7c3-.6,6.1-.9,9.1-.9,29.2,0,53,22.9,53,51s-23.8,51-53,51-18.9-2.5-27.1-7.1l-.7-.4-.5.6c-10.1,11.3-24.7,17.7-40.2,17.7Z"/>
    <path class="cls-2" d="M268.6,48.8c21.8,0,41.4,13.2,48.9,32.8l.6,1.6,1.6-.3c3.3-.6,6.6-.9,9.9-.9,19.1,0,36.7,10,45.8,26.2l.7,1.2,1.4-.2c3-.5,6-.7,9-.7,28.7,0,52,22.4,52,50s-23.3,50-52,50-18.6-2.4-26.6-7l-1.4-.8-1.1,1.2c-9.9,11-24.3,17.4-39.4,17.4s-30.9-6.9-40.9-19l-1.5-1.9-1.5,1.9c-9.9,12.1-24.8,19-40.9,19s-26.5-5-36.3-14.1l-1.3-1.2-1.4,1.1c-9.4,7.7-21.4,12-33.8,12s-27.1-5.3-37-14.8l-1.2-1.1-1.3.9c-8.7,5.8-18.9,8.8-29.5,8.8-28.7,0-52-22.4-52-50s23.3-50,52-50,3.5,0,5.2.2h1.3c0,.1.6-1,.6-1,9.2-15.9,26.6-25.7,45.5-25.7s13,1.2,19,3.5l1.3.5.9-1c9.9-11,24.2-17.3,39.3-17.3s11.9,1,17.6,2.9l1.5.5.9-1.3c9.6-14.5,26-23.2,43.9-23.2M268.6,46.8c-19.2,0-36,9.6-45.6,24.1-5.7-2-11.8-3-18.2-3-16.3,0-30.9,6.9-40.8,17.9-6.1-2.3-12.8-3.6-19.7-3.6-20.3,0-38,10.8-47.2,26.7-1.8-.2-3.6-.3-5.4-.3-29.8,0-54,23.3-54,52s24.2,52,54,52,21.9-3.4,30.6-9.1c9.8,9.5,23.4,15.4,38.4,15.4s25.6-4.7,35.1-12.4c9.7,9.1,23,14.7,37.6,14.7s32.5-7.7,42.4-19.8c9.9,12,25.2,19.8,42.4,19.8s31-7,40.9-18c8.1,4.6,17.5,7.3,27.6,7.3,29.8,0,54-23.3,54-52s-24.2-52-54-52-6.3.3-9.3.8c-9.2-16.2-27-27.2-47.5-27.2s-6.9.3-10.3.9c-7.6-19.9-27.4-34.1-50.8-34.1h0Z"/>
  </g>
  <g>
    <path class="cls-1" d="M320,208.2c-16.3,0-31.5-7.1-41.6-19.4l-.8-.9-.8.9c-10.1,12.3-25.3,19.4-41.6,19.4s-27-5.1-36.9-14.4l-.6-.6-.7.6c-9.6,7.9-21.8,12.2-34.4,12.2s-27.6-5.4-37.7-15.1l-.6-.6-.7.4c-8.9,5.9-19.2,9-30,9-29.2,0-53-22.9-53-51s23.8-51,53-51,3.6,0,5.3.3h.6c0,0,.3-.5.3-.5,9.4-16.2,27.1-26.2,46.4-26.2s13.2,1.2,19.4,3.5l.6.2.5-.5c10.1-11.2,24.7-17.6,40.1-17.6s12.2,1,17.9,3l.7.3.4-.6c9.8-14.8,26.5-23.7,44.8-23.7s42.2,13.5,49.8,33.5l.3.8.8-.2c3.3-.6,6.7-.9,10.1-.9,19.5,0,37.4,10.2,46.7,26.7l.3.6h.7c3-.6,6.1-.9,9.1-.9,29.2,0,53,22.9,53,51s-23.8,51-53,51-18.9-2.5-27.1-7.1l-.7-.4-.5.6c-10.1,11.3-24.7,17.7-40.2,17.7Z"/>
    <path class="cls-1" d="M270.6,36.8c21.8,0,41.4,13.2,48.9,32.8l.6,1.6,1.6-.3c3.3-.6,6.6-.9,9.9-.9,19.1,0,36.7,10,45.8,26.2l.7,1.2,1.4-.2c3-.5,6-.7,9-.7,28.7,0,52,22.4,52,50s-23.3,50-52,50-18.6-2.4-26.6-7l-1.4-.8-1.1,1.2c-9.9,11-24.3,17.4-39.4,17.4s-30.9-6.9-40.9-19l-1.5-1.9-1.5,1.9c-9.9,12.1-24.8,19-40.9,19s-26.5-5-36.3-14.1l-1.3-1.2-1.4,1.1c-9.4,7.7-21.4,12-33.8,12s-27.1-5.3-37-14.8l-1.2-1.1-1.3.9c-8.7,5.8-18.9,8.8-29.5,8.8-28.7,0-52-22.4-52-50s23.3-50,52-50,3.5,0,5.2.2h1.3c0,.1.6-1,.6-1,9.2-15.9,26.6-25.7,45.5-25.7s13,1.2,19,3.5l1.3.5.9-1c9.9-11,24.2-17.3,39.3-17.3s11.9,1,17.6,2.9l1.5.5.9-1.3c9.6-14.5,26-23.2,43.9-23.2M270.6,34.8c-19.2,0-36,9.6-45.6,24.1-5.7-2-11.8-3-18.2-3-16.3,0-30.9,6.9-40.8,17.9-6.1-2.3-12.8-3.6-19.7-3.6-20.3,0-38,10.8-47.2,26.7-1.8-.2-3.6-.3-5.4-.3-29.8,0-54,23.3-54,52s24.2,52,54,52,21.9-3.4,30.6-9.1c9.8,9.5,23.4,15.4,38.4,15.4s25.6-4.7,35.1-12.4c9.7,9.1,23,14.7,37.6,14.7s32.5-7.7,42.4-19.8c9.9,12,25.2,19.8,42.4,19.8s31-7,40.9-18c8.1,4.6,17.5,7.3,27.6,7.3,29.8,0,54-23.3,54-52s-24.2-52-54-52-6.3.3-9.3.8c-9.2-16.2-27-27.2-47.5-27.2s-6.9.3-10.3.9c-7.6-19.9-27.4-34.1-50.8-34.1h0Z"/>
  </g>
</svg>